<?xml version="1.0" encoding="UTF-8"?>
<svg width="439" height="61" viewBox="0 0 439 61" fill="none" xmlns="http://www.w3.org/2000/svg">
<path d="M11.56 2.0499V19.7899L23.61 2.0499H37.64L17.26 22.8399L54.47 2.0499V15.2499L21.06 27.7899L54.47 24.6599V37.1999L21.06 34.0699L54.47 46.6099V59.8099L17.26 39.0199L37.64 59.8099H23.6L11.55 42.0699V59.8099H0V2.0499H11.56Z" fill="url(#paint0_radial_4902_385)"/>
<path d="M62.71 2.0499H76.32L74.26 39.4199L91.17 2.0499H102.31V59.7999H88.7L90.76 22.4299L73.85 59.7999H62.71V2.0499Z" fill="url(#paint1_radial_4902_385)"/>
<path d="M110.56 2.0499H124.17V24.3299H135.72V2.0499H149.33V59.7999H135.72V33.3999H124.17V59.7999H110.56V2.0499Z" fill="url(#paint2_radial_4902_385)"/>
<path d="M155.6 30.9299C155.6 14.4299 163.19 0.899902 178.45 0.899902C193.71 0.899902 201.3 14.4299 201.3 30.9299C201.3 47.4299 193.71 60.9599 178.45 60.9599C163.19 60.9599 155.6 47.4299 155.6 30.9299ZM178.45 52.3799C183.81 52.3799 186.95 42.8899 186.95 30.9299C186.95 18.9699 183.81 9.4799 178.45 9.4799C173.09 9.4799 169.95 18.9699 169.95 30.9299C169.96 42.8899 173.09 52.3799 178.45 52.3799Z" fill="url(#paint3_radial_4902_385)"/>
<path d="M207.57 2.0499H246.76V59.7999H233.15V11.1199H221.19V59.7999H207.58V2.0499H207.57Z" fill="url(#paint4_radial_4902_385)"/>
<path d="M253.03 30.9299C253.03 14.4299 260.62 0.899902 275.88 0.899902C291.14 0.899902 298.73 14.4299 298.73 30.9299C298.73 47.4299 291.14 60.9599 275.88 60.9599C260.62 60.9599 253.03 47.4299 253.03 30.9299ZM275.89 52.3799C281.25 52.3799 284.39 42.8899 284.39 30.9299C284.39 18.9699 281.25 9.4799 275.89 9.4799C270.53 9.4799 267.39 18.9699 267.39 30.9299C267.39 42.8899 270.52 52.3799 275.89 52.3799Z" fill="url(#paint5_radial_4902_385)"/>
<path d="M305.01 2.0499H318.62L316.56 39.4199L333.47 2.0499H344.61V59.7999H331L333.06 22.4299L316.15 59.7999H305.01V2.0499Z" fill="url(#paint6_radial_4902_385)"/>
<path d="M380.82 39.4199L393.77 41.3999L393.36 43.3799C391.13 54.1099 384.37 60.9499 373.23 60.9499C357.97 60.9499 350.87 47.4199 350.87 30.9199C350.87 14.4199 357.97 0.889893 373.23 0.889893C383.96 0.889893 390.8 7.7399 393.2 17.7999L393.61 19.5299L380.33 22.4999C379.34 14.4999 376.95 9.4599 373.23 9.4599C367.87 9.4599 365.23 18.9499 365.23 30.9099C365.23 42.8699 367.87 52.3599 373.23 52.3599C377.28 52.3799 379.83 47.0099 380.82 39.4199Z" fill="url(#paint7_radial_4902_385)"/>
<path d="M399.38 2.0499H412.99V28.0399L424.13 2.0499H438.16L422.07 30.0199L438.57 59.7999H423.31L413 33.8099V59.7999H399.39V2.0499H399.38Z" fill="url(#paint8_radial_4902_385)"/>
<defs>
<radialGradient id="paint0_radial_4902_385" cx="0" cy="0" r="1" gradientUnits="userSpaceOnUse" gradientTransform="translate(1.40633e-05 2.05005) rotate(1.99993) scale(525.523 77.0565)">
<stop offset="0.5" stop-color="#FF5500"/>
<stop offset="1" stop-color="#BDF700"/>
</radialGradient>
<radialGradient id="paint1_radial_4902_385" cx="0" cy="0" r="1" gradientUnits="userSpaceOnUse" gradientTransform="translate(1.40633e-05 2.05005) rotate(1.99993) scale(525.523 77.0565)">
<stop offset="0.5" stop-color="#FF5500"/>
<stop offset="1" stop-color="#BDF700"/>
</radialGradient>
<radialGradient id="paint2_radial_4902_385" cx="0" cy="0" r="1" gradientUnits="userSpaceOnUse" gradientTransform="translate(1.40633e-05 2.05005) rotate(1.99993) scale(525.523 77.0565)">
<stop offset="0.5" stop-color="#FF5500"/>
<stop offset="1" stop-color="#BDF700"/>
</radialGradient>
<radialGradient id="paint3_radial_4902_385" cx="0" cy="0" r="1" gradientUnits="userSpaceOnUse" gradientTransform="translate(1.40633e-05 2.05005) rotate(1.99993) scale(525.523 77.0565)">
<stop offset="0.5" stop-color="#FF5500"/>
<stop offset="1" stop-color="#BDF700"/>
</radialGradient>
<radialGradient id="paint4_radial_4902_385" cx="0" cy="0" r="1" gradientUnits="userSpaceOnUse" gradientTransform="translate(1.40633e-05 2.05005) rotate(1.99993) scale(525.523 77.0565)">
<stop offset="0.5" stop-color="#FF5500"/>
<stop offset="1" stop-color="#BDF700"/>
</radialGradient>
<radialGradient id="paint5_radial_4902_385" cx="0" cy="0" r="1" gradientUnits="userSpaceOnUse" gradientTransform="translate(1.40633e-05 2.05005) rotate(1.99993) scale(525.523 77.0565)">
<stop offset="0.5" stop-color="#FF5500"/>
<stop offset="1" stop-color="#BDF700"/>
</radialGradient>
<radialGradient id="paint6_radial_4902_385" cx="0" cy="0" r="1" gradientUnits="userSpaceOnUse" gradientTransform="translate(1.40633e-05 2.05005) rotate(1.99993) scale(525.523 77.0565)">
<stop offset="0.5" stop-color="#FF5500"/>
<stop offset="1" stop-color="#BDF700"/>
</radialGradient>
<radialGradient id="paint7_radial_4902_385" cx="0" cy="0" r="1" gradientUnits="userSpaceOnUse" gradientTransform="translate(1.40633e-05 2.05005) rotate(1.99993) scale(525.523 77.0565)">
<stop offset="0.5" stop-color="#FF5500"/>
<stop offset="1" stop-color="#BDF700"/>
</radialGradient>
<radialGradient id="paint8_radial_4902_385" cx="0" cy="0" r="1" gradientUnits="userSpaceOnUse" gradientTransform="translate(1.40633e-05 2.05005) rotate(1.99993) scale(525.523 77.0565)">
<stop offset="0.5" stop-color="#FF5500"/>
<stop offset="1" stop-color="#BDF700"/>
</radialGradient>
</defs>
</svg>
